<svg version="1.1" id="TR25_MUSIC" xmlns:mydata="http://www.w3.org/2000/svg" xmlns="http://www.w3.org/2000/svg"
    xmlns:xlink="http://www.w3.org/1999/xlink" x="0px" y="0px" viewBox="-30 -70 580 640"
    style="enable-background:new 0 0 550 550; background-color: transparent;" xml:space="preserve" height="512px"
    width="512px">
    <style type="text/css">
        .st0 {
            fill: #EA7600;
        }

        .outline {
            fill: none;
            stroke: #505050; /* Stroke color */
            stroke-width: 20px; /* Stroke width */
            stroke-linejoin: round; /* Rounded stroke join */
            stroke-linecap: round; /* Rounded stroke cap */
        }

        .background {
            fill: #A0522D; /* Fill color */
            stroke-width: 0; /* No stroke */
            rx: 75px; /* Horizontal corner radius */
            ry: 75px; /* Vertical corner radius */
        }
    </style>
    <!-- Background shape -->
    <rect class="background" x="10" y="-20" width="520" height="520" />
    <!-- Characters -->
    <g>
        <path class="outline" d="M246.4,19.6v43.3h-56V227h-43.3V62.8H91V19.6H246.4z" />
        <path class="st0" d="M246.4,19.6v43.3h-56V227h-43.3V62.8H91V19.6H246.4z" />
    </g>
    <g>
        <path class="outline" d="M319.1,156.7h-1.2v69.8h-43.3v-69.8v-20.2c-0.2-0.4-0.3-0.9-0.3-1.4c0-0.8,0.1-1.2,0.3-1.4v-20.2h19.9
    h1.7h1.4h40.1L287.1,63V19.7h94.6c9.2,0,17.9,1.8,26.1,5.3c8.2,3.6,15.3,8.5,21.3,14.7c6.1,6.2,10.9,13.5,14.4,21.8
    c3.6,8.3,5.3,17.1,5.3,26.5c0,9.4-1.8,18.3-5.3,26.5c-3.6,8.3-8.4,15.5-14.4,21.8c-6.1,6.2-13.2,11.2-21.3,14.7
    c-8.2,3.6-16.9,5.3-26.1,5.3v0.3h-1.2l70.1,69.8l-61.7,0.3L319.1,156.7z M348.8,63l46.2,46.2c3.3-2.3,5.9-5.3,7.8-8.9
    c1.9-3.7,2.9-7.7,2.9-12.1c0-6.9-2.3-12.8-6.9-17.7c-4.6-4.9-10.3-7.4-17-7.4H348.8z" />
        <path class="st0"
            d="M319.1,156.7h-1.2v69.8h-43.3v-69.8v-20.2c-0.2-0.4-0.3-0.9-0.3-1.4c0-0.8,0.1-1.2,0.3-1.4v-20.2h19.9
    h1.7h1.4h40.1L287.1,63V19.7h94.6c9.2,0,17.9,1.8,26.1,5.3c8.2,3.6,15.3,8.5,21.3,14.7c6.1,6.2,10.9,13.5,14.4,21.8
    c3.6,8.3,5.3,17.1,5.3,26.5c0,9.4-1.8,18.3-5.3,26.5c-3.6,8.3-8.4,15.5-14.4,21.8c-6.1,6.2-13.2,11.2-21.3,14.7
    c-8.2,3.6-16.9,5.3-26.1,5.3v0.3h-1.2l70.1,69.8l-61.7,0.3L319.1,156.7z M348.8,63l46.2,46.2c3.3-2.3,5.9-5.3,7.8-8.9
    c1.9-3.7,2.9-7.7,2.9-12.1c0-6.9-2.3-12.8-6.9-17.7c-4.6-4.9-10.3-7.4-17-7.4H348.8z" />
    </g>
    <g>
        <path class="outline"
            d="M204.3,253.8H82.6v52h121.7c9.5,0,10.5,8.2,10.5,15.4c0,5.6-4.9,10.1-10.5,10.1h-72.6 c-27.5,0-62.2,14.7-62.2,46.8V461h184.2v-52H121.5V385c3.3-1.3,6.9-1.6,10.1-1.6h72.6c34.4,0,62.2-28.1,62.2-62.2v-4.9 C266.5,282,238.6,253.8,204.3,253.8L204.3,253.8z" />
        <path class="st0"
            d="M204.3,253.8H82.6v52h121.7c9.5,0,10.5,8.2,10.5,15.4c0,5.6-4.9,10.1-10.5,10.1h-72.6 c-27.5,0-62.2,14.7-62.2,46.8V461h184.2v-52H121.5V385c3.3-1.3,6.9-1.6,10.1-1.6h72.6c34.4,0,62.2-28.1,62.2-62.2v-4.9 C266.5,282,238.6,253.8,204.3,253.8L204.3,253.8z" />
    </g>
    <g>
        <path class="outline"
            d="M334.7,331.5v-25.8h118.7v-51.9H282.9v82.5c0,32,34.6,46.6,62,46.6h72.4c9.5,0,10.4,8.2,10.4,15.3 c0,5.5-4.9,10.1-10.4,10.1H295.9v51.9h121.4c34.3,0,62-28.1,62-62v-4.9c0-34.3-27.7-62-62-62H334.7z" />
        <path class="st0"
            d="M334.7,331.5v-25.8h118.7v-51.9H282.9v82.5c0,32,34.6,46.6,62,46.6h72.4c9.5,0,10.4,8.2,10.4,15.3 c0,5.5-4.9,10.1-10.4,10.1H295.9v51.9h121.4c34.3,0,62-28.1,62-62v-4.9c0-34.3-27.7-62-62-62H334.7z" />
    </g>
</svg>
