<svg xmlns="http://www.w3.org/2000/svg" width="1520" height="340" viewBox="0 0 1520 340">
    <!-- Left SVG -->
    <g transform="translate(0, 0)">
        <svg xmlns="http://www.w3.org/2000/svg" width="400" height="340" fill="none" viewBox="0 0 40 34">
            <path fill="#ff6740"
                d="M34.542 21.669H8.216a.585.585 0 0 1 0-1.17h26.326a.585.585 0 0 1 0 1.17Zm0 2.218H8.216a.585.585 0 1 1 0-1.17h26.326a.585.585 0 0 1 0 1.17Z" />
            <path fill="#ff6740" d="M30.233 23.229v3.912l1.675-.97 1.676.97V23.23h-3.35Z" />
            <path fill="#272B30" d="M35.715 10.866h-4.403v2.441h4.403v-2.44Z" />
            <path fill="#F1F1F1"
                d="M38.08 13.928c-.021-.02-.043-.037-.065-.056a5.998 5.998 0 0 1-1.266-1.536l-.009-.018h-.001a5.91 5.91 0 0 1-.72-2.15c-.004-.047-.01-.093-.015-.14v-.009a1.514 1.514 0 0 0-.327-.725l-.048-.054a10.43 10.43 0 0 0-5.301-3.198 6.574 6.574 0 0 1 .81-3.484.376.376 0 0 0-.332-.557h-.026a13.705 13.705 0 0 0-6.965 3.33 13.792 13.792 0 0 0-2.85 3.56 12.616 12.616 0 0 0-1.722-.764 12.859 12.859 0 0 0-5.536-.697 12.765 12.765 0 0 0-4.165 1.105C5.379 10.437 2.405 14.49 2.039 19.27c-.026.33-.039.665-.039 1v3.233c0 .56.083 1.098.237 1.605a5.55 5.55 0 0 0 2.596 3.226c.76.427 1.63.68 2.56.704h8.212a1.623 1.623 0 0 1 .243 0c.013 0 .026 0 .04.003.021.001.042.002.064.005a1.941 1.941 0 0 1 1.706 1.702 1.291 1.291 0 0 1 .014.23l-.001.036v.004a1.95 1.95 0 0 0 .918 1.61 1.94 1.94 0 0 0 2.955-1.514.943.943 0 0 0 .004-.077v-.108c0-.662-.11-1.3-.313-1.891a5.816 5.816 0 0 0-1.421-2.254 5.815 5.815 0 0 0-4.087-1.676H8.88c-.016.002-.033.002-.05.002-.016 0-.033 0-.05-.002a2.917 2.917 0 0 1-2.87-2.918 2.92 2.92 0 0 1 2.92-2.921h26.106a1.52 1.52 0 0 0 1.443-1.05l.02-.07c.091-.294.27-.55.506-.737l.004-.002a.638.638 0 0 1 .058-.044.934.934 0 0 1 .082-.055 2.985 2.985 0 0 0 1.032-3.385Zm-3.487-1.165a.377.377 0 0 1-.175-.044 2.037 2.037 0 0 0-1.423-.234c-.212.04-.412.114-.595.215l-.008.006c-.012.004-.022.011-.032.018a.369.369 0 0 1-.37-.634l.036-.022a2.794 2.794 0 0 1 2.735 0l.036.022a.367.367 0 0 1-.204.673Z" />
            <path fill="#E6E6E6"
                d="M38.08 13.928c-.021-.02-.043-.037-.065-.056a5.998 5.998 0 0 1-1.266-1.536l-.009-.018h-.001a5.91 5.91 0 0 1-.72-2.15c-.004-.047-.01-.093-.015-.14v-.009a1.514 1.514 0 0 0-.327-.725l-.048-.054a10.43 10.43 0 0 0-5.301-3.198 6.574 6.574 0 0 1 .81-3.484.376.376 0 0 0-.332-.557h-.026a13.705 13.705 0 0 0-6.965 3.33 13.792 13.792 0 0 0-2.85 3.56 12.616 12.616 0 0 0-1.722-.764 12.859 12.859 0 0 0-5.536-.697 12.765 12.765 0 0 0-4.165 1.105C5.379 10.437 2.405 14.49 2.039 19.27c-.026.33-.039.665-.039 1v3.233c0 .56.083 1.098.237 1.605a5.55 5.55 0 0 0 2.596 3.226c.76.427 1.63.68 2.56.704h8.212a1.623 1.623 0 0 1 .243 0c.013 0 .026 0 .04.003.021.001.042.002.064.005a1.941 1.941 0 0 1 1.706 1.702 1.291 1.291 0 0 1 .014.23l-.001.036v.004a1.95 1.95 0 0 0 .918 1.61 1.94 1.94 0 0 0 2.955-1.514.943.943 0 0 0 .004-.077v-.108c0-.662-.11-1.3-.313-1.891a5.816 5.816 0 0 0-1.421-2.254 5.815 5.815 0 0 0-4.087-1.676H8.88c-.016.002-.033.002-.05.002-.016 0-.033 0-.05-.002a2.917 2.917 0 0 1-2.87-2.918 2.92 2.92 0 0 1 2.92-2.921h26.106a1.52 1.52 0 0 0 1.443-1.05l.02-.07c.091-.294.27-.55.506-.737l.004-.002a.638.638 0 0 1 .058-.044.934.934 0 0 1 .082-.055 2.985 2.985 0 0 0 1.032-3.385Zm-3.487-1.165a.377.377 0 0 1-.175-.044 2.037 2.037 0 0 0-1.423-.234c-.212.04-.412.114-.595.215l-.008.006c-.012.004-.022.011-.032.018a.369.369 0 0 1-.37-.634l.036-.022a2.794 2.794 0 0 1 2.735 0l.036.022a.367.367 0 0 1-.204.673Z" />
            <path fill="#ff6740"
                d="M21.005 8.824c.703 3.38 3.635 5.915 7.147 5.915 2.067 0 3.933-.88 5.262-2.292l-.021-.001c-.137 0-.27.013-.398.04a1.942 1.942 0 0 0-.595.214l-.008.006a.11.11 0 0 0-.033.019.369.369 0 0 1-.532-.33c0-.128.064-.239.162-.305l.037-.022a2.789 2.789 0 0 1 1.952-.294 7.519 7.519 0 0 0 1.309-2.898 10.415 10.415 0 0 0-4.96-2.834 6.573 6.573 0 0 1 .81-3.485.376.376 0 0 0-.332-.557c-.008 0-.017 0-.026.002a13.7 13.7 0 0 0-6.965 3.33 13.793 13.793 0 0 0-2.81 3.492Z" />
            <path fill="#272B30"
                d="M36.145 15.807a13.641 13.641 0 0 0-.955-.26 16.819 16.819 0 0 0-2.907-.459c-.652-.054-1.306-.027-1.956.023l-.488.054c-.162.023-.32.062-.482.09-.328.04-.636.16-.962.228a7.178 7.178 0 0 1 1.906-.572 8.967 8.967 0 0 1 1.998-.083 11.15 11.15 0 0 1 1.972.313 9.682 9.682 0 0 1 1.874.666Zm-.287.6a13.093 13.093 0 0 0-.983-.115 16.794 16.794 0 0 0-2.944-.022c-.653.043-1.295.167-1.93.313l-.475.126c-.156.047-.308.108-.463.16-.319.089-.605.252-.917.369a7.175 7.175 0 0 1 1.8-.849 8.965 8.965 0 0 1 1.963-.38c.665-.05 1.335-.05 1.997.018a9.73 9.73 0 0 1 1.952.38Zm-.045.699c-.33.026-.659.051-.985.1a16.838 16.838 0 0 0-2.878.614c-.628.183-1.228.442-1.818.723l-.435.225c-.143.08-.278.172-.418.257-.293.155-.537.376-.817.557a7.174 7.174 0 0 1 1.575-1.217 8.939 8.939 0 0 1 1.835-.794 11.13 11.13 0 0 1 1.953-.415 9.683 9.683 0 0 1 1.988-.05Z" />
            <path fill="#F27BAA"
                d="M38.015 13.872a6.04 6.04 0 0 1-.32-.3.968.968 0 0 0 .5 1.796h.015c.006-.041.016-.08.02-.122a2.95 2.95 0 0 0-.15-1.319l-.065-.055Z" />
            <path fill="#fff"
                d="M29.993 6.54c0 .046 0 .092.002.138a10.408 10.408 0 0 0-3.166 2.017 5.556 5.556 0 0 1 4.345-6.23 7.584 7.584 0 0 0-1.18 4.075Z" />
            <path fill="#ff6740"
                d="M19.814 26.785a5.844 5.844 0 0 0-.404-.36 4.512 4.512 0 0 0-3.245 2.66 1.942 1.942 0 0 1 1.507 1.893l-.001.037v.004a1.955 1.955 0 0 0 .918 1.611 1.94 1.94 0 0 0 2.959-1.592v-.108c0-.662-.11-1.3-.313-1.891a5.831 5.831 0 0 0-1.421-2.255Z" />
        </svg>
    </g>
    <!-- Right SVG -->
    <g transform="translate(400, 17)">
        <svg xmlns="http://www.w3.org/2000/svg" width="1120" height="280" fill="none" viewBox="0 0 112 28"
            style="cursor: default;">
            <path fill="currentColor"
                d="M1.565 22h3.391l1.081-11.214L9.986 21.57h2.089l3.959-10.784L17.104 22h3.402L18.785 4.675h-3.613l-4.136 10.836L6.899 4.675H3.287L1.565 22Zm24.785.336c.735 0 1.421-.15 2.058-.451a5.262 5.262 0 0 0 1.701-1.303V22h3.224V11.248h-3.224v1.313a4.295 4.295 0 0 0-1.627-1.208 5.165 5.165 0 0 0-2.132-.441c-1.036 0-1.956.252-2.761.756a5.225 5.225 0 0 0-1.88 2.037c-.455.854-.682 1.82-.682 2.898 0 1.106.238 2.093.714 2.961a5.464 5.464 0 0 0 1.91 2.037c.806.49 1.705.735 2.7.735Zm.956-2.74c-.833 0-1.523-.28-2.069-.84-.546-.56-.819-1.271-.819-2.132 0-.861.273-1.571.82-2.131.552-.56 1.242-.84 2.068-.84.833 0 1.519.28 2.058.84.546.553.819 1.263.819 2.131 0 .868-.27 1.582-.809 2.142-.539.553-1.228.83-2.068.83ZM35.025 22h3.223v-6.363c0-.623.207-1.145.62-1.565.413-.426.976-.64 1.69-.64.7 0 1.25.217 1.649.651.406.427.609 1.025.609 1.796V22h3.223v-6.804c0-.854-.178-1.6-.535-2.236a3.818 3.818 0 0 0-1.48-1.502c-.624-.364-1.348-.546-2.174-.546-.742 0-1.425.143-2.048.43a4.626 4.626 0 0 0-1.554 1.103v-1.197h-3.223V22Zm17.678 5.775c1.42 0 2.593-.238 3.517-.714.931-.469 1.624-1.116 2.08-1.942.461-.826.692-1.768.692-2.825V11.248H55.77v1.313a4.332 4.332 0 0 0-1.607-1.208 4.996 4.996 0 0 0-2.1-.441c-1.036 0-1.96.248-2.772.745a5.355 5.355 0 0 0-1.91 2.037c-.463.861-.694 1.838-.694 2.93 0 1.113.238 2.1.714 2.961a5.462 5.462 0 0 0 1.922 2.026 5.031 5.031 0 0 0 2.656.725c.75 0 1.45-.154 2.1-.462a4.933 4.933 0 0 0 1.69-1.291v1.512c0 .867-.286 1.568-.86 2.1-.567.532-1.306.797-2.216.797a4.04 4.04 0 0 1-1.869-.44c-.574-.294-1.008-.69-1.302-1.187l-2.625 1.281a4.748 4.748 0 0 0 2.153 2.331c.987.532 2.205.798 3.654.798Zm.241-8.18c-.84 0-1.53-.276-2.068-.829-.532-.56-.798-1.267-.798-2.121 0-.868.273-1.582.819-2.142.553-.567 1.242-.85 2.068-.85.826 0 1.512.283 2.058.85.546.56.82 1.274.82 2.142 0 .854-.274 1.561-.82 2.121-.539.553-1.232.83-2.079.83Zm12.224 2.741c.735 0 1.42-.15 2.058-.451a5.262 5.262 0 0 0 1.7-1.303V22h3.224V11.248h-3.223v1.313a4.295 4.295 0 0 0-1.628-1.208 5.165 5.165 0 0 0-2.131-.441c-1.036 0-1.957.252-2.762.756a5.225 5.225 0 0 0-1.88 2.037c-.454.854-.682 1.82-.682 2.898 0 1.106.238 2.093.714 2.961a5.464 5.464 0 0 0 1.911 2.037c.805.49 1.705.735 2.699.735Zm.955-2.74c-.833 0-1.522-.28-2.068-.84-.546-.56-.82-1.271-.82-2.132 0-.861.274-1.571.82-2.131.553-.56 1.242-.84 2.068-.84.833 0 1.52.28 2.058.84.546.553.82 1.263.82 2.131 0 .868-.27 1.582-.81 2.142-.538.553-1.228.83-2.068.83ZM74.303 22h4.757c1.232 0 2.377-.217 3.434-.651a8.569 8.569 0 0 0 2.782-1.837 8.344 8.344 0 0 0 1.859-2.752c.44-1.05.661-2.184.661-3.402s-.224-2.351-.672-3.402a8.433 8.433 0 0 0-1.858-2.771 8.514 8.514 0 0 0-2.772-1.848c-1.057-.441-2.202-.662-3.434-.662h-4.756V22Zm3.403-3.045V7.72h.976c1.05 0 1.985.245 2.804.735a5.242 5.242 0 0 1 1.942 2.005c.476.847.714 1.81.714 2.888 0 1.071-.238 2.03-.714 2.877a5.242 5.242 0 0 1-1.942 2.005c-.82.483-1.754.725-2.804.725h-.976Zm16.12 3.381c1.135 0 2.164-.245 3.088-.735.924-.49 1.638-1.169 2.142-2.037l-2.32-1.166c-.4.477-.816.823-1.25 1.04-.427.217-.92.326-1.48.326-.897 0-1.618-.249-2.164-.746s-.819-1.155-.819-1.974h8.243c.02-.182.031-.305.031-.367.007-.07.01-.151.01-.242 0-1.099-.237-2.061-.713-2.887a4.947 4.947 0 0 0-1.974-1.932c-.84-.47-1.82-.704-2.94-.704-1.12 0-2.132.255-3.035.766a5.839 5.839 0 0 0-2.142 2.048c-.532.861-.798 1.827-.798 2.898 0 1.085.266 2.058.798 2.919a5.832 5.832 0 0 0 2.195 2.047c.924.497 1.967.746 3.129.746Zm-2.687-7.077c.07-.623.329-1.113.777-1.47s1.022-.535 1.722-.535c.665 0 1.218.178 1.659.535.448.357.728.847.84 1.47h-4.998ZM98.122 22h3.864l2.688-3.402L107.362 22h3.864l-4.589-5.617 3.938-5.135h-3.738l-2.163 2.888-2.163-2.888h-3.739l3.938 5.135L98.122 22Z" />
        </svg>
    </g>
</svg>